<?xml version="1.0" encoding="UTF-8"?>
<svg width="512" height="512" viewBox="0 0 512 512" fill="none" xmlns="http://www.w3.org/2000/svg">
  <defs>
    <radialGradient id="bg" cx="0" cy="0" r="1" gradientUnits="userSpaceOnUse" gradientTransform="translate(256 176) rotate(90) scale(420)">
      <stop offset="0" stop-color="#0E1C46" />
      <stop offset="0.55" stop-color="#070B1A" />
      <stop offset="1" stop-color="#050612" />
    </radialGradient>

    <linearGradient id="accent" x1="120" y1="160" x2="392" y2="352" gradientUnits="userSpaceOnUse">
      <stop offset="0" stop-color="#2D69FF" />
      <stop offset="0.48" stop-color="#45B7FF" />
      <stop offset="1" stop-color="#9141FF" />
    </linearGradient>

    <radialGradient id="nodeCore" cx="0" cy="0" r="1" gradientUnits="userSpaceOnUse" gradientTransform="translate(0 0) rotate(90) scale(46)">
      <stop offset="0" stop-color="#0F1F4F" />
      <stop offset="1" stop-color="#060A18" />
    </radialGradient>

    <pattern id="dots" x="0" y="0" width="40" height="40" patternUnits="userSpaceOnUse">
      <circle cx="20" cy="20" r="2" fill="#2D69FF" opacity="0.22" />
      <circle cx="7" cy="33" r="1.5" fill="#9141FF" opacity="0.16" />
      <circle cx="33" cy="7" r="1.5" fill="#45B7FF" opacity="0.14" />
    </pattern>

    <filter id="softGlow" x="-40%" y="-40%" width="180%" height="180%" color-interpolation-filters="sRGB">
      <feGaussianBlur stdDeviation="6" result="blur" />
      <feColorMatrix
        in="blur"
        type="matrix"
        values="1 0 0 0 0  0 1 0 0 0  0 0 1 0 0  0 0 0 0.75 0"
        result="glow"
      />
      <feMerge>
        <feMergeNode in="glow" />
        <feMergeNode in="SourceGraphic" />
      </feMerge>
    </filter>

    <filter id="halo" x="-80%" y="-80%" width="260%" height="260%" color-interpolation-filters="sRGB">
      <feGaussianBlur stdDeviation="14" result="blur" />
      <feColorMatrix
        in="blur"
        type="matrix"
        values="1 0 0 0 0  0 1 0 0 0  0 0 1 0 0  0 0 0 0.55 0"
        result="h"
      />
      <feMerge>
        <feMergeNode in="h" />
      </feMerge>
    </filter>
  </defs>

  <rect width="512" height="512" fill="url(#bg)" />
  <rect width="512" height="512" fill="url(#dots)" opacity="0.18" />

  <g>
    <path
      d="M154 256C186 198 218 198 256 256C294 314 326 314 358 256C326 198 294 198 256 256C218 314 186 314 154 256Z"
      stroke="url(#accent)"
      stroke-width="56"
      stroke-linecap="round"
      stroke-linejoin="round"
      opacity="0.45"
      filter="url(#softGlow)"
    />
    <path
      d="M154 256C186 198 218 198 256 256C294 314 326 314 358 256C326 198 294 198 256 256C218 314 186 314 154 256Z"
      stroke="url(#accent)"
      stroke-width="38"
      stroke-linecap="round"
      stroke-linejoin="round"
    />

    <g transform="translate(154 256)">
      <circle r="92" fill="#BFD7FF" opacity="0.06" filter="url(#halo)" />
      <circle r="82" fill="#FFFFFF" opacity="0.04" />
      <circle r="70" fill="none" stroke="#FFFFFF" stroke-opacity="0.10" stroke-width="4" />
      <circle r="56" fill="none" stroke="url(#accent)" stroke-width="26" />
      <circle r="34" fill="url(#nodeCore)" />
      <circle r="6" fill="#55AFFF" />
    </g>

    <g transform="translate(358 256)">
      <circle r="92" fill="#BFD7FF" opacity="0.06" filter="url(#halo)" />
      <circle r="82" fill="#FFFFFF" opacity="0.04" />
      <circle r="70" fill="none" stroke="#FFFFFF" stroke-opacity="0.10" stroke-width="4" />
      <circle r="56" fill="none" stroke="url(#accent)" stroke-width="26" />
      <circle r="34" fill="url(#nodeCore)" />
      <circle r="6" fill="#55AFFF" />
    </g>
  </g>
</svg>

